#!OML:ASF F:\VICON\USERDATA\INSTALL\rory3\rory3.ASF
:FULLY-SPECIFIED
:DEGREES
110
root 1.518611508271513 17.869667471996596 52.10853013441956 -2.7912872712910906 -1.8158715787686552 -2.7706765847367687
lfemur 1.4823810958150485 -2.5682081451534047 -18.056912931842238
ltibia 50.002267797947106
lfoot -4.434821779491671 -1.3413573602709645
ltoes -4.26131716216489
rfemur -19.665820943236575 3.344042527436312 26.916042425084047
rtibia 28.70173458509369
rfoot -13.531720806180138 -8.500261239024471
rtoes 4.066625081575416
lowerback 1.0 -1.720379786320947 -0.016514566216425663
upperback -0.09411252689953836 -2.0302236859830503 2.2804677784704195
thorax -5.047597995208514 -1.0053359029629851 3.255709757132298
lowerneck -16.247965483284023 -2.710827188788967 -1.6607058140588145
upperneck 23.32775606355672 -3.2159472615389184 -0.3781081984790089
head 10.174744409183207 -1.694082068936428 -0.2633892901068513
lclavicle -1.9671098073607512e-15 -2.43389311227993e-16
lhumerus -30.033864719571685 1.477300358634886 82.36339018365241
lradius 21.636419155295034
lwrist 7.1325571559384535
lhand -27.506072112391198 23.513960046905016
lfingers nan
lthumb -0.5489637399102831 53.838658940296234
rclavicle -1.934493588356264e-15 -2.1898718162538757e-16
rhumerus -31.766752269093516 -25.567622794055275 -74.36631944935395
rradius 32.08441090092613
rwrist 3.448598590032294
rhand -18.30216437792791 1.0
rfingers nan
rthumb 8.403910688713923 -7.916262072474365
111
root 1.5058310842134754 17.87703655756575 51.466872207545 -2.699237592614773 -1.9335506456425422 -3.892733019220202
lfemur -1.6924321341666353 -1.8616184066998829 -15.957034433677201
ltibia 54.36237694284238
lfoot -5.338928330381244 -0.2195012518770958
ltoes -4.373697933122284
rfemur -17.588201044528763 3.7492448181930693 28.004214429895786
rtibia 29.188717473708834
rfoot -15.491873458879894 -9.721195663177966
rtoes 3.1800766234305233
lowerback 1.0 -1.4127638030669254 0.9053490538098686
upperback -0.07324438273508738 -1.4402786678345836 2.4295414960423782
thorax -5.198337448200196 -0.7068446747196209 2.950488390109189
lowerneck -16.322274132781835 -2.7735926762394114 -1.5078044118246117
upperneck 23.021930995064228 -3.3397797353040968 -0.41611693307027714
head 10.069621855367007 -1.7417776612397813 -0.31788358621079527
lclavicle -1.965400372303081e-15 -2.4312540653861167e-16
lhumerus -30.24991181821718 1.8102532210469728 82.46145654266168
lradius 21.69946632991637
lwrist 7.320060126318523
lhand -27.52063084163739 23.622731918580666
lfingers nan
lthumb -0.728433837999922 53.6694253377647
rclavicle -1.9312617903965996e-15 -2.1723026081959646e-16
rhumerus -31.354411054882014 -25.183536636945004 -73.93522819981162
rradius 32.123184451857455
rwrist 3.4481361696994113
rhand -18.2832864838929 1.0
rfingers nan
rthumb 8.440611974504387 -7.844254032201252
112
root 1.4895746454090932 17.878459076259574 50.38103216407307 -2.8031327466113845 -1.9923263061060705 -4.971180972764003
lfemur -5.237871499365532 -1.2135418245059582 -14.090177474917201
ltibia 57.88279926642699
lfoot -6.698685481650439 0.3463031352570467
ltoes -5.05403254713339
rfemur -14.601220762157643 4.286888797480988 29.276960209074932
rtibia 29.23319833173904
rfoot -16.832006970993145 -10.679920263589278
rtoes 1.9611933067176692
lowerback 1.0 -1.0532075150800584 1.7872730965628927
upperback -0.03349885957451809 -0.7692610113396638 2.557148475818477
thorax -5.327173301850847 -0.3762979182017806 2.472506658707283
lowerneck -16.394754302722045 -2.8725684632231254 -1.3644492904924097
upperneck 22.67930316624598 -3.531467381726318 -0.42454267113985134
head 9.96449523579229 -1.811324155515616 -0.3732796909635383
lclavicle -1.963495522024964e-15 -2.4300709574466533e-16
lhumerus -30.391316655572105 2.082556318493703 82.55503305826782
lradius 21.847430499501094
lwrist 7.509241962496569
lhand -27.60568637117773 23.519705209697094
lfingers nan
lthumb -0.7696943855990139 53.66730732661113
rclavicle -1.9271119681846188e-15 -2.149397517870356e-16
rhumerus -31.101408833960793 -25.02831911826576 -73.62183492443938
rradius 32.178794911682665
rwrist 3.479290943377296
rhand -18.31556580800272 1.0
rfingers nan
rthumb 8.389177351860747 -7.929212267182176
113
root 1.4663626965501075 17.875486524675008 49.58688288673438 -2.906098897771118 -1.8395721830078813 -6.126476652930611
lfemur -9.136814741641219 -0.7809901236259975 -12.537636085513597
ltibia 60.27522453698464
lfoot -7.09343744360816 1.0319410204367934
ltoes -5.537415132759284
rfemur -12.250314998722377 4.65289152351365 30.279998591554968
rtibia 29.24133587207224
rfoot -17.241224678545393 -10.964242226751946
rtoes 0.8495779282646136
lowerback 1.0 -0.6667410782924713 2.819100509523018
upperback -0.008780150589741242 -0.026475494553740986 2.6407237421489853
thorax -5.457942567507458 0.0003155875126848451 1.8437210477137111
lowerneck -16.39089424728113 -2.9787239298367236 -1.2282259700883482
upperneck 22.368347401912466 -3.736225860353907 -0.42540317368387615
head 9.862274490749476 -1.8848887297458985 -0.42325348006274166
lclavicle -1.959850754956273e-15 -2.4222613699457396e-16
lhumerus -30.458695369344063 2.2765427787600263 82.62910330750398
lradius 22.069118552370377
lwrist 7.7054417368619585
lhand -27.537128458873887 23.656307451511317
lfingers nan
lthumb -0.8285988521522173 53.60350392694394
rclavicle -1.920447636119614e-15 -2.1112053570024778e-16
rhumerus -30.99936943302658 -25.09640567156724 -73.5080968340026
rradius 32.23618188956754
rwrist 3.522732805360775
rhand -18.282695502990983 1.0
rfingers nan
rthumb 8.405221130094173 -7.88571039714352
114
root 1.4459212740296983 17.876180126473106 49.386745220429084 -2.9730434907962624 -1.5338353042765078 -6.7356547627021595
lfemur -12.850726680441769 -0.6413425263798238 -11.990679911101722
ltibia 61.20985752746606
lfoot -7.555258387651474 0.9530443371450743
ltoes -6.39156037290298
rfemur -9.444656034370658 4.877444057404894 30.904400946226524
rtibia 29.092153806114332
rfoot -16.63575288378241 -10.521922624214948
rtoes 0.00910620583389754
lowerback 1.0 -0.3565516313264395 3.483836893029871
upperback -0.005704726898243306 0.499859798769032 2.5956172236847848
thorax -5.532726524711661 0.2676227953975752 1.2493852001910315
lowerneck -16.328190823102258 -3.0974430342322394 -1.1646060971736762
upperneck 22.17601255736168 -3.9620157109401974 -0.4070167430331929
head 9.797174491549445 -1.963490628027041 -0.4618901414909967
lclavicle -1.9549405555489017e-15 -2.4112080509122177e-16
lhumerus -30.447821894443653 2.3686213694716716 82.67987498354758
lradius 22.329918404704493
lwrist 7.859571865356932
lhand -27.587300833510557 23.497983263539368
lfingers nan
lthumb -0.8097311657639265 53.597407591285624
rclavicle -1.911579131414856e-15 -2.0596435967328653e-16
rhumerus -30.872374307889448 -25.167789711714928 -73.48058265910097
rradius 32.27770430907862
rwrist 3.5526657722116473
rhand -18.318715610165896 1.0
rfingers nan
rthumb 8.37130397388405 -7.937219233911511
